{"accessors":[{"bufferView":0,"byteOffset":0,"componentType":5126,"count":122,"max":[0.0073015401139855385,0.014529437758028507,0.15000000596046448],"min":[-0.007300081662833691,-0.014529564417898655,0.029999999329447746],"type":"VEC3"},{"bufferView":1,"byteOffset":0,"componentType":5121,"count":120,"normalized":true,"type":"VEC4"},{"bufferView":2,"byteOffset":0,"componentType":5125,"count":40,"type":"SCALAR"},{"bufferView":3,"byteOffset":0,"componentType":5125,"count":240,"type":"SCALAR"},{"bufferView":4,"byteOffset":0,"componentType":5126,"count":1071,"max":[0.007304193452000618,0.01454820018261671,0.15000000596046448],"min":[-0.007304193452000618,-0.01454820018261671,0.029999999329447746],"type":"VEC3"},{"bufferView":5,"byteOffset":0,"componentType":5125,"count":6000,"type":"SCALAR"}],"asset":{"generator":"VTK","version":"2.0"},"bufferViews":[{"buffer":0,"byteLength":1464,"byteOffset":0,"target":34962},{"buffer":1,"byteLength":480,"byteOffset":0,"target":34962},{"buffer":2,"byteLength":160,"byteOffset":0,"target":34963},{"buffer":3,"byteLength":960,"byteOffset":0,"target":34963},{"buffer":4,"byteLength":12852,"byteOffset":0,"target":34962},{"buffer":5,"byteLength":24000,"byteOffset":0,"target":34963}],"buffers":[{"byteLength":1464,"uri":"data:application/octet-stream;base64,"},{"byteLength":480,"uri":"data:application/octet-stream;base64,"},{"byteLength":160,"uri":"data:application/octet-stream;base64,"},{"byteLength":960,"uri":"data:application/octet-stream;base64,"},{"byteLength":12852,"uri":"data:application/octet-stream;base64,"},{"byteLength":24000,"uri":"data:application/octet-stream;base64,"}],"cameras":[{"perspective":{"aspectRatio":1.916775032509753,"yfov":0.5235987755982988,"zfar":0.29606144578169447,"znear":0.19625551542604897},"type":"perspective"}],"materials":[{"pbrMetallicRoughness":{"baseColorFactor":[1.0,1.0,1.0,1.0],"metallicFactor":0.0,"roughnessFactor":1.0}},{"pbrMetallicRoughness":{"baseColorFactor":[1.0,1.0,1.0,1.0],"metallicFactor":0.0,"roughnessFactor":1.0}}],"meshes":[{"name":"mesh0","primitives":[{"attributes":{"COLOR_0":1,"POSITION":0},"indices":2,"material":0,"mode":0},{"attributes":{"COLOR_0":1,"POSITION":0},"indices":3,"mode":4}]},{"name":"mesh1","primitives":[{"attributes":{"POSITION":4},"indices":5,"material":1,"mode":4}]}],"nodes":[{"mesh":0,"name":"mesh0"},{"mesh":1,"name":"mesh1"},{"camera":0,"matrix":[0.2088046638552373,-0.1441901078419815,-0.9672692619704293,-0.0,0.9365037838950442,-0.2554315205578802,0.24024029856739998,-0.0,-0.2817113329324286,-0.9560146186675217,0.08169928880612987,-0.0,-0.06766201538332045,-0.22962012267198414,0.10962291967734819,1.0],"name":"Camera Node"},{"children":[0,1,2],"name":"Renderer Node"}],"scene":0,"scenes":[{"name":"Layer 0","nodes":[3]}]}